<svg xmlns="http://www.w3.org/2000/svg" viewBox="0 0 640 512" fill="#00FFFF">
  <path d="M192 144c0-17.7-14.3-32-32-32s-32 14.3-32 32v48H80c-17.7 0-32 14.3-32 32s14.3 32 32 32h48v48c0 17.7 14.3 32 32 32s32-14.3 32-32v-48h48c17.7 0 32-14.3 32-32s-14.3-32-32-32h-48v-48zM512 256c0-17.7-14.3-32-32-32s-32 14.3-32 32 14.3 32 32 32 32-14.3 32-32zM416 192c0 17.7 14.3 32 32 32s32-14.3 32-32-14.3-32-32-32-32 14.3-32 32zM560 160c-17.7 0-32 14.3-32 32s14.3 32 32 32 32-14.3 32-32-14.3-32-32-32zm-64 128c0-17.7-14.3-32-32-32s-32 14.3-32 32 14.3 32 32 32 32-14.3 32-32zM21 216.5C8 231.7 0 250.2 0 270c0 98 109.9 166.4 199 123.6l74.9-35.9c14.2-6.8 30.6-6.8 44.8 0l74.9 35.9C482.1 436.4 592 368 592 270c0-19.8-8-38.3-21-53.5l-84.5-98.6c-22.1-25.8-54.3-41-88.6-41.9H194.1c-34.3 .9-66.5 16-88.6 41.9l-84.5 98.6z"/>
</svg>
